<svg width="34" height="12" viewBox="0 0 34 12" fill="none" xmlns="http://www.w3.org/2000/svg">
<path d="M32.9702 11.4991C33.2458 11.5156 33.4826 11.3055 33.4991 11.0298L33.7677 6.53787C33.7842 6.26222 33.5741 6.0254 33.2985 6.00892C33.0228 5.99243 32.786 6.20253 32.7695 6.47818L32.5307 10.471L28.5379 10.2323C28.2622 10.2158 28.0254 10.4259 28.0089 10.7015C27.9924 10.9772 28.2025 11.214 28.4782 11.2305L32.9702 11.4991ZM1.43235 11.2511C2.75606 8.97239 6.24675 4.10612 11.5234 2.24574C14.1434 1.32201 17.2196 1.13295 20.7288 2.39023C24.2479 3.65105 28.2301 6.37671 32.626 11.3318L33.374 10.6682C28.9051 5.63078 24.7901 2.78304 21.0661 1.44883C17.3323 0.111089 14.0194 0.30539 11.1909 1.30264C5.57046 3.28423 1.92599 8.41048 0.567653 10.7489L1.43235 11.2511Z" fill="black"/>
</svg>
