<svg width="29" height="22" viewBox="0 0 29 22" fill="none" xmlns="http://www.w3.org/2000/svg">
<path d="M26.936 9.69706C27.3209 9.73244 27.6617 9.44902 27.6971 9.06405L28.2735 2.79047C28.3089 2.40549 28.0254 2.06473 27.6405 2.02936C27.2555 1.99399 26.9147 2.2774 26.8794 2.66238L26.367 8.23889L20.7905 7.72651C20.4055 7.69114 20.0647 7.97455 20.0294 8.35953C19.994 8.74451 20.2774 9.08527 20.6624 9.12064L26.936 9.69706ZM3.61475 9.33479C4.60158 7.52271 7.17377 3.71886 11.0143 2.27455C12.9036 1.56403 15.1228 1.41484 17.6732 2.3895C20.2411 3.37084 23.1851 5.50783 26.4618 9.44761L27.5382 8.55239C24.1663 4.49816 21.0374 2.17643 18.173 1.08175C15.2911 -0.0196094 12.7185 0.137891 10.5215 0.964154C6.18914 2.59342 3.40996 6.78359 2.38525 8.66522L3.61475 9.33479Z" fill="black"/>
<path d="M2.06405 12.3029C1.67907 12.2676 1.33831 12.551 1.30294 12.936L0.726514 19.2095C0.691142 19.5945 0.974553 19.9353 1.35953 19.9706C1.74451 20.006 2.08527 19.7226 2.12064 19.3376L2.63302 13.7611L8.20953 14.2735C8.5945 14.3089 8.93527 14.0254 8.97064 13.6405C9.00601 13.2555 8.7226 12.9147 8.33762 12.8794L2.06405 12.3029ZM25.3852 12.6652C24.3984 14.4773 21.8262 18.2811 17.9857 19.7254C16.0964 20.436 13.8772 20.5852 11.3268 19.6105C8.75894 18.6292 5.81491 16.4922 2.53819 12.5524L1.46181 13.4476C4.83372 17.5018 7.96256 19.8236 10.827 20.9183C13.7089 22.0196 16.2815 21.8621 18.4785 21.0358C22.8109 19.4066 25.59 15.2164 26.6148 13.3348L25.3852 12.6652Z" fill="black"/>
</svg>
